<svg ersion="1.0" xmlns="http://www.w3.org/2000/svg" xmlns:xlink="http://www.w3.org/1999/xlink" viewBox="0 0 150 50" preserveAspectRatio="xMidYMid meet" color-interpolation-filters="sRGB" style="margin: auto;"><g fill="#333"><g><g><g><g transform="translate(0, 0)"><g><g><rect fill="#333" fill-opacity="0" stroke-width="2" x="0" y="0" width="36.75625672878636" height="49.99966907728751"></rect> <svg x="0" y="0" width="36.75625672878636" height="49.99966907728751" filtersec="colorsb4127025997" style="overflow: visible;"><svg xmlns="http://www.w3.org/2000/svg" viewBox="-0.0038759708404541016 -0.0012786327861249447 58.84111404418945 80.04230499267578"><g fill="#00accc"><path d="M49.74 1.81h-.03l-.02-.01.05.02v-.01zM46 14.81a.38.38 0 0 0-.18-.06c.06.06.18.1.18.06zM46 14.56h-.09s.09.01.09 0zM45.29 14.28a.61.61 0 0 1 0 .21h.21c-.2-.22-.2-.22-.21-.21zM45.1 14.32v.19c.05-.1.04-.17 0-.19zM57.09 18.43l.01-.02v.01l-.01.01zM49.77 1.82h-.01.01zM45.84 14.45l.07.07z"></path><path d="M58.6 11.6a12.48 12.48 0 0 0-9.05-9.81l-1-.24c.33.06.65.13 1 .22h.13-.13a15.89 15.89 0 0 0-7.06-.34 23.75 23.75 0 0 0-7.22 2.51C29.14 7.26 25 11.41 20.66 16.81l-.64.81.63-.82c4.29-5.4 8.28-9.57 14.25-13.1-6.08 3.4-10.14 7.53-14.5 12.9A104.89 104.89 0 0 0 9.25 34.53c-1.06 2-2.06 4.07-3 6.16-.88 1.92-1.69 3.81-2.46 5.78.75-2 1.55-3.88 2.41-5.81 2-4.52 4.14-8.73 6.6-13a104.23 104.23 0 0 1 7.4-11.22c4.4-5.52 8.5-9.76 14.65-13.32A25.12 25.12 0 0 1 42.31.36a17.62 17.62 0 0 1 6.23-.08 17.5 17.5 0 0 0-6.25 0A25 25 0 0 0 34.75 3c-6.25 3.47-10.42 7.7-14.88 13.23a98.24 98.24 0 0 0-7.51 11.21c-2.46 4.28-4.56 8.5-6.59 13.05A70.23 70.23 0 0 0 .44 57.27c-.7 4.84-.73 8.73 1.08 13.37a15.53 15.53 0 0 0 2.26 3.77A16.12 16.12 0 0 0 5.27 76 14.82 14.82 0 0 0 10 78.92s.73.25.73.26a20.64 20.64 0 0 0 11.27.15c8-2.16 14-6.08 20-11.74a47.45 47.45 0 0 0 9.06-12 49.13 49.13 0 0 1-9.41 11.64l-.86.77.84-.78c5-4.9 8.51-9.64 10.85-15.65l.42-.05h-.4a42 42 0 0 0 1.63-5.22 40 40 0 0 1-1.32 4.13l-1-.07.33-1 .69-.07h-.66l.3-1h.31-.28c.2-.69.39-1.4.56-2.13-.2.73-.42 1.44-.65 2.13l-1.08-.07c.11-.39.23-.77.34-1.17l.83-.13-.79-.05.3-1.15c-.1.4-.22.77-.33 1.15l-1-.07a3 3 0 0 0 .07-.32l.63-.07h-.61c0-.07 0-.13.05-.2l.66-.08h-.64c0-.15.07-.29.1-.44v-.19.19H46.6v-.11.11c-.78 0-1.56 0-2.34.08H45c0 .13 6.75-.81 7.41-.93 0 0-1.77-.13-2.66-.16l2.66-.39S51 44 50.23 43.93l1.12-.13s-3.24 0-4.86.09h-.55s3.27-.33 4.9-.52c0 0-3.29 0-4.94.1 0 0 3.26-.33 4.89-.52 0 0-3.39 0-5.08.12h-.84s3.68-.38 5.52-.6h-2.61s3.06-.37 4.57-.63a52 52 0 0 0-6-.09s2.57-.37 3.85-.6c0 0-1.49-.1-2.23-.11l2.73-.3a75 75 0 0 0-7.79.32s-2.84.33-3.11.36l.89-.19 1.83-.23 6.95-.71 3-.3h-4.06s1.71-.26 2.56-.41a44.42 44.42 0 0 0-4.61-.12s2.54-.36 3.81-.59a47.29 47.29 0 0 0-7.62.08l1.45-.23h-1.4l2.1-.17 7.69-.7h-4.11s1.73-.26 2.59-.41a47.6 47.6 0 0 0-7.92.07c-4 .4-7.83 1-11.8 1.73a39.35 39.35 0 0 0-8.2 2.48l4-.74s-1.49.45-2.22.7c0 0 2.4-.51 3.61-.74l-1 .34 2.6-.33-.23.06a37.35 37.35 0 0 0-7.21 2.37L29.4 42h.09s-1.78.56-2.65.89l2.55-.34s-1.4.4-2.08.63c0 0-2.88.85-4.27 1.39 0 0 2-.5 3.05-.73l1.91-.3s-3 .86-4.42 1.46c0 0 2.78-.65 4.18-1l-.48.15s5.41-1 8.12-1.37l.46-.07h.53l-.57.08a58.36 58.36 0 0 0-7.61 1.67s-1.74.51-2.59.81l1.15-.27s-1.89.68-2.82 1.08l7.12-1.33s-2 .59-3 .94l2.8-.36s-2.77.79-4.12 1.31c0 0-1.63.53-2.43.84 0 0 3.83-.89 5.75-1.28l.43-.07a46.48 46.48 0 0 0-5.5 1.63s3-.68 4.53-1l-1.09.33 3.09-.53a33.37 33.37 0 0 0-5.24 1.7l3.94-.61s-1.86.51-2.77.82l.87-.17a28.33 28.33 0 0 0-3.9 1.51s2.95-.55 4.42-.84l-.12.05.82-.1s-2.67.77-4 1.26c0 0 2.79-.63 4.19-.91l.9-.12a31.9 31.9 0 0 0-3.64 1.3s-1.25.43-1.86.67c0 0 3.05-.72 4.58-1 0 0 3.08-.5 4.61-.77A48.19 48.19 0 0 0 28 50.92l1.47-.28-.51.16 2.25-.4a28.77 28.77 0 0 0-5.77 2s4.07-.73 6.09-1.13c0 0-1.58.51-2.35.82l1.01-.09s-1.64.48-2.44.77l1.91-.38h-.06s-2.08.73-3.07 1.19c0 0 4-.66 6-1 0 0-1.56.49-2.33.79l.8-.08-1 .29 1.84-.31A40.48 40.48 0 0 0 27 54.71l1.86-.41-.11.05s3.33-.44 5-.69c0 0-2.09.51-3.11.83l3.56-.56-.27.29a42.84 42.84 0 0 0-4.71 1.27l4.23-.75c-.6.62-1.22 1.23-1.9 1.85-3.85 3.42-8.1 6.33-13.15 7.62a8.34 8.34 0 0 1-2.58.23 12.62 12.62 0 0 1 .06-4.63 56.59 56.59 0 0 1 4.23-12.93 104.9 104.9 0 0 1 11.3-20l.78-1c2.9-3.62 5.88-6.91 9.9-9.3A11.4 11.4 0 0 1 45 15.37c.06 0 .86-.09.87-.11a2.15 2.15 0 0 1-.52-.43l-.06-.09v-.23h-.11v.05h-.31a10.5 10.5 0 0 0-3.17 1.16 19.4 19.4 0 0 0-2.22 1.36 25 25 0 0 1 2.16-1.48l.33-.19-.34.17a27.23 27.23 0 0 0-7 5.3l.74-.76a29 29 0 0 1 6.11-4.81A11.83 11.83 0 0 1 44.73 14a4.34 4.34 0 0 1 1.48-.07c.16 0 .17.06.14 0s.08.08.1.16a3.22 3.22 0 0 1 0 1.48 8.57 8.57 0 0 1-.89 2.4 10.24 10.24 0 0 0 1.09-2.35 4.62 4.62 0 0 0 .16-1.62 2 2 0 0 0-.1-.41c-.05-.12-.22-.18-.33-.22a3.79 3.79 0 0 0-1.77-.05 11.5 11.5 0 0 0-3.56 1.28 25.36 25.36 0 0 0-4.72 3.31l-.3.27A29 29 0 0 1 41 14.39 14.33 14.33 0 0 1 44.08 13a12.84 12.84 0 0 0-3.24 1.18 24.53 24.53 0 0 0-4.49 3A28.57 28.57 0 0 1 40.73 14a17.91 17.91 0 0 1 2.12-1 12.09 12.09 0 0 1 1.62-.46 5.27 5.27 0 0 1 2.13 0 1.75 1.75 0 0 1 .81.42 1.68 1.68 0 0 1 .43.85 4.87 4.87 0 0 1-.07 2.08 10.23 10.23 0 0 1-.85 2.3 10.3 10.3 0 0 0 .93-2.28 5.32 5.32 0 0 0 .15-2.18 2.17 2.17 0 0 0-.42-1 1.74 1.74 0 0 0-.91-.54l-.17-.05a5.36 5.36 0 0 0-2.11-.05 12.82 12.82 0 0 0-3.94 1.37h-.08.08A13.77 13.77 0 0 1 44.37 12a5.78 5.78 0 0 1 2.38 0 2.18 2.18 0 0 1 1.06.56 2.24 2.24 0 0 1 .55 1.11 5.34 5.34 0 0 1-.07 2.33 9.65 9.65 0 0 1-.29 1c.13-.34.24-.68.34-1a5.67 5.67 0 0 0 .16-2.35 2.38 2.38 0 0 0-.5-1.23 2.24 2.24 0 0 0-1.13-.68 5.56 5.56 0 0 0-2.5-.06 11.14 11.14 0 0 0-2.43.71c.38-.15 1.07-.43 1.49-.55a14.82 14.82 0 0 0-3.13 1.25c-4.67 2.54-8 6.09-11.32 10.18a92.36 92.36 0 0 0-9 14.25l-1.08 2.14s-.86 1.69-1.28 2.55q.66-1.41 1.35-2.79a102.37 102.37 0 0 1 9.92-16.24C32.12 19 35.4 15.43 40 12.7a14.6 14.6 0 0 1 4.17-1.61 6.52 6.52 0 0 1 2.78 0 3.18 3.18 0 0 1 1.51.83A3 3 0 0 0 47 11a5.34 5.34 0 0 0-1.32-.2A5.06 5.06 0 0 1 47 11a3.22 3.22 0 0 1 1.58.85 3.39 3.39 0 0 1 .86 1.63 6.55 6.55 0 0 1 0 2.82 11.05 11.05 0 0 1-.3 1.09 9.81 9.81 0 0 0 .37-1.08 7 7 0 0 0 .21-2.88 3.77 3.77 0 0 0-.82-1.83 3.7 3.7 0 0 0-1.72-1.07 6.92 6.92 0 0 0-3.07-.11A14.6 14.6 0 0 0 39.64 12a34 34 0 0 0-9 7.37 37.38 37.38 0 0 1 8.85-7.65 21.6 21.6 0 0 1 1.73-.88 18.77 18.77 0 0 0-1.77.8 32.43 32.43 0 0 0-8.23 6.32 35.63 35.63 0 0 1 8-6.64 16.82 16.82 0 0 1 4.66-1.83 8.68 8.68 0 0 1 3.33 0 1.33 1.33 0 0 0 .19 0 4.63 4.63 0 0 1 3.5 3.69 8.08 8.08 0 0 1-.09 3.46 12.33 12.33 0 0 1-.4 1.35 13.11 13.11 0 0 0 .44-1.34 8.23 8.23 0 0 0 .18-3.49 5.06 5.06 0 0 0-1.18-2.49 5 5 0 0 0-2.34-1.47 8.18 8.18 0 0 0-3.65-.11A16.15 16.15 0 0 0 39 10.84a28.54 28.54 0 0 0-4.83 3.32s-.64.53-1.16 1a31.55 31.55 0 0 1 5.99-4.4 16.56 16.56 0 0 1 4.85-1.83 8.63 8.63 0 0 1 3.73.07 5.22 5.22 0 0 1 2.52 1.45A5.43 5.43 0 0 1 51.43 13a7.77 7.77 0 0 1 .07 2.72 7.82 7.82 0 0 0 0-2.73 5.4 5.4 0 0 0-1.29-2.7 5.34 5.34 0 0 0-2.58-1.56 8.78 8.78 0 0 0-3.85-.13 16.93 16.93 0 0 0-5 1.8 26.66 26.66 0 0 0-2.45 1.49c.8-.56 1.57-1.06 2.42-1.54a20.4 20.4 0 0 1 2-1 20.37 20.37 0 0 0-2 .93 36.31 36.31 0 0 0-9.82 8.06 39.07 39.07 0 0 1 9.69-8.3 17.61 17.61 0 0 1 5.06-2 9.34 9.34 0 0 1 4.11 0 6.09 6.09 0 0 1 3 1.67 5.57 5.57 0 0 1 .58.69 7.64 7.64 0 0 0-.54-.73A6.21 6.21 0 0 0 47.85 8a9.44 9.44 0 0 0-4.23-.2 17.25 17.25 0 0 0-5.26 1.8A29.54 29.54 0 0 0 34 12.41a31 31 0 0 1 4.27-2.92 18.29 18.29 0 0 1 5.28-2 11.4 11.4 0 0 1 3.35-.13 10.82 10.82 0 0 0-3.36.06l-1.3.28c.43-.12.85-.22 1.3-.31a10.23 10.23 0 0 1 4.46.06 6.74 6.74 0 0 1 3.28 1.9A6.88 6.88 0 0 1 53 12.72a10.16 10.16 0 0 1 0 4.39 16.31 16.31 0 0 1-2.08 5 16.77 16.77 0 0 0 2.31-4.94 10.57 10.57 0 0 0 .24-4.51A7.54 7.54 0 0 0 51.66 9a7.32 7.32 0 0 0-3.5-2.14 10.64 10.64 0 0 0-4.73-.19 16.17 16.17 0 0 0-3.15.88l.65-.26a21.42 21.42 0 0 0-3.12 1.31l-.89.48c.1-.06.88-.49.87-.5a18.86 18.86 0 0 1 5.6-2.09 11 11 0 0 1 4.84.1 7.71 7.71 0 0 1 3.7 2.17 7.8 7.8 0 0 1 1.93 3.8 10.71 10.71 0 0 1-.06 4.51 10.77 10.77 0 0 0 .2-4.53 7.9 7.9 0 0 0-1.9-3.9 7.8 7.8 0 0 0-3.76-2.28 11.18 11.18 0 0 0-4.95-.18 19.12 19.12 0 0 0-5.72 2.06l-1.43.82a35 35 0 0 0-3.55 2.46 33.44 33.44 0 0 1 4.9-3.44 20.07 20.07 0 0 1 5.75-2.2 11.64 11.64 0 0 1 5.07.12 8.31 8.31 0 0 1 4 2.33S53 8.9 53 9a8.73 8.73 0 0 1 1.53 3.45 11.74 11.74 0 0 1-.13 5 17 17 0 0 1-1.53 4 17.54 17.54 0 0 0 1.62-4 11.86 11.86 0 0 0 .21-5.1 8.73 8.73 0 0 0-2.1-4.27 8.62 8.62 0 0 0-4.13-2.5 12 12 0 0 0-5.29-.19 19.8 19.8 0 0 0-6 2.15l-.42.23c-5.36 3-9 6.83-12.86 11.59C22.54 21.21 21.25 23 20 25c1.26-1.93 2.55-3.75 4-5.58 3.93-4.94 7.68-8.88 13.17-12.07a20.35 20.35 0 0 1 6-2.26 12.6 12.6 0 0 1 5.08 0A12.52 12.52 0 0 0 43.12 5a19.43 19.43 0 0 0-4.47 1.37 22.65 22.65 0 0 1 3.07-1.14A21.78 21.78 0 0 0 37 7.06a34.25 34.25 0 0 0-6.11 4.22 35.5 35.5 0 0 1 6-4.31 21.15 21.15 0 0 1 6.15-2.3 12.87 12.87 0 0 1 5.66.12 9.54 9.54 0 0 1 4.59 2.69 9.77 9.77 0 0 1 2.43 4.72 13 13 0 0 1-.1 5.58 19 19 0 0 1-2 5 19.39 19.39 0 0 0 2.16-5 13.11 13.11 0 0 0 .26-5.71 10 10 0 0 0-7.22-7.91 13.29 13.29 0 0 0-6-.24 21.26 21.26 0 0 0-6.41 2.28 35.48 35.48 0 0 0-6.82 4.85 38.24 38.24 0 0 1 6.72-5 22.78 22.78 0 0 1 5.65-2.31 22.38 22.38 0 0 0-5.76 2.11l-.71.38c.11-.06.71-.39.7-.4a22 22 0 0 1 6.66-2.43 14 14 0 0 1 6.22.15 10.92 10.92 0 0 1 5 2.84 10.74 10.74 0 0 0-4.93-2.91 14 14 0 0 0-6.27-.25 20.47 20.47 0 0 0-3.77 1.05l.43-.17a20.27 20.27 0 0 1 3.32-1 14.24 14.24 0 0 1 6.33.14 11.09 11.09 0 0 1 5.32 3.12 11.26 11.26 0 0 1 2.82 5.45 14.33 14.33 0 0 1-.11 6.25l-.06.29c0-.06.07-.28.07-.28a14.42 14.42 0 0 0 .29-6.3 11.35 11.35 0 0 0-8.2-9 14.83 14.83 0 0 0-6.56-.28 22.85 22.85 0 0 0-6.9 2.5 41.09 41.09 0 0 0-10.67 8.53 44 44 0 0 1 10.51-8.85l.8-.44c-.28.13-.55.27-.82.41a34.33 34.33 0 0 0-3.2 1.88 36.87 36.87 0 0 1 3.14-2c.78-.43 1.53-.8 2.34-1.16-.82.34-1.58.71-2.36 1.12a37.51 37.51 0 0 0-7.09 5 38.57 38.57 0 0 1 7-5.08 23.62 23.62 0 0 1 7-2.59 15.59 15.59 0 0 1 6.93.2 12.28 12.28 0 0 1 5.93 3.53 12.41 12.41 0 0 1 3.1 6.09 15.34 15.34 0 0 1 .06 5.77 15.44 15.44 0 0 0 .08-5.81zm-13.74 3.11h.3v.08h-.29a7.65 7.65 0 0 0-1.7.47 8.32 8.32 0 0 1 1.69-.55zm-3.5 52.23c-5.83 5.3-11.51 9-19.15 11.15l-.5.12a19.55 19.55 0 0 1-10.62-.14 13.56 13.56 0 0 1-5-2.91 13.74 13.74 0 0 1-3.45-5 17.63 17.63 0 0 1-1.13-4 17.58 17.58 0 0 0 1.18 4 15.1 15.1 0 0 0 1.18 2.21A13.73 13.73 0 0 0 6.1 75.1a13.44 13.44 0 0 0 5 2.91c.33.11.65.2 1 .28a20 20 0 0 0 9.6-.15c7.83-2.08 13.64-5.9 19.53-11.35A46.29 46.29 0 0 0 50.75 54 47 47 0 0 1 41 66.59c-1 .92-2 1.79-3.06 2.64 1.05-.87 2-1.74 3-2.68 4.56-4.56 7.91-9 10.15-14.46l.41-.09h-.33c0-.11.09-.22.13-.33l1-.11c-2.39 5.92-5.98 10.57-10.94 15.38zm5.52-11.27c.64-1.1 1.19-2.14 1.68-3.19l1-.15a42.7 42.7 0 0 1-6.72 9.88c-1 1.09-2 2.1-3.06 3.11a46 46 0 0 1-15.5 9.73 31.38 31.38 0 0 1-3.16.86 17.28 17.28 0 0 1-9.3-.21 12 12 0 0 1-1.68-.7 13.72 13.72 0 0 0 1.73.72 17.13 17.13 0 0 0 9.26 0A32.19 32.19 0 0 0 28 73.14a46.55 46.55 0 0 0 9.89-6.73c.55-.48 1.08-1 1.6-1.47a43.94 43.94 0 0 0 8.71-11.48s-.86 1.54-1.32 2.21zm-4.19 1.06s1.32-1.94 1.91-3a42.76 42.76 0 0 1-6.45 8l-.89.83c-5.11 4.52-10.29 7.9-17 9.6a13.83 13.83 0 0 1-7.28 0 7.66 7.66 0 0 1-2.76-1.6A7.41 7.41 0 0 1 9 69a8.72 8.72 0 0 1-.6-1.18 14.33 14.33 0 0 1-.88-6.05 29.38 29.38 0 0 1 .37-3.25A52.9 52.9 0 0 1 10 50.57l.45-1.26a54.41 54.41 0 0 0-2 7.22c-.16.66-.3 1.31-.42 2-.52 3.22-.73 6.16.42 9.27A7.31 7.31 0 0 0 13 72.15a13.09 13.09 0 0 0 6.72.12l.54-.12C26.92 70.4 32 66.94 37 62.3a41.06 41.06 0 0 0 7.2-9.3h.1a7.77 7.77 0 0 0 1.31-.12 42.23 42.23 0 0 1-8 10 48 48 0 0 1-3.87 3.26 50.14 50.14 0 0 0 3.8-3.34 44.2 44.2 0 0 0 5.27-6.23zM12.7 66a3.22 3.22 0 0 0 .61 1s.13.13.13.14a2.85 2.85 0 0 0 1.05.58 9.33 9.33 0 0 0 4.72-.13c5.7-1.53 10.25-4.7 14.52-8.69a42.36 42.36 0 0 0 3-3.26c.45-.55.86-1.1 1.26-1.64l.64-.1a41.46 41.46 0 0 1-4.72 5.22c-4.36 3.93-9 7-14.71 8.55a9.6 9.6 0 0 1-4.76.1 3.45 3.45 0 0 1-.65-.3l-.41-.3a3.11 3.11 0 0 1-.72-1.17c-.82-2.12-.58-4.58-.25-6.78 0 0 .13-.79.15-.87-.05.3-.1.58-.13.88a20.65 20.65 0 0 0-.24 3A9.54 9.54 0 0 0 12.7 66zm23.47-12.2l-1 .17.18-.22 1.18-.18-.17.19zm2.16-5.09h-.21l.09-.16.45-.09-.09.18zm.55-.28H39l2.38-.35s-.05.09-.07.14l-2.49.41zm1.2-2.58c.74 0 1.48-.1 2.22-.14v.08l-1.13.14-1.27.07.06-.15zM41.91 48h.47l1-.07a1 1 0 0 0 0 .1h-.45a10 10 0 0 0-1.4.17l.06-.13zm6.88-.16c.05-.17.1-.34.16-.51l1.46-.2c-.08.26-.16.53-.25.78zm1.35.13v.09h-.37zm-1.43.85l1.17-.13c-.08.2-.15.41-.23.61H48.3c.06-.16.12-.31.17-.48zm2.41-.27c-.08.25-.17.49-.26.74h-1c.07-.2.13-.41.2-.62zm-.13 0h.15zM40.1 65.61l-.66.6.65-.61a43.35 43.35 0 0 0 9.67-13.29l1.08-.17C48.44 57.4 45 61.64 40.49 66l-1.29 1.17c.43-.39.84-.78 1.26-1.18a45.06 45.06 0 0 0 8.73-11.65 46.65 46.65 0 0 1-9.09 11.27zm9.82-13.68v-.12L51 51.7a2.55 2.55 0 0 1-.13.29zm-.14 0h-.71l.76-.08zm.32-.41c0-.12.09-.23.14-.34l1.07-.11c-.06.15-.12.3-.19.44zm.19-.49l.09-.23 1.11-.16-.16.39zm-.12 0h-1v-.07l1-.14zm-.87-.85v.07h-.4zm-.34-.5h.56v.07zm0 1.32h-.33zm.59-.75v-.11l1-.18-.11.33zm.2-.54a.42.42 0 0 1 0-.1l1-.1-.09.26zm-1.57-.39c-.73 0-1.55 0-2.11.07h-.17c0-.09.07-.19.11-.28l.73-.1 1.61-.16c-.07.15-.14.31-.2.47zm-2.42.07h-.4l.09-.2h.43zm-3.46 3.9A41 41 0 0 1 35.75 61a41.55 41.55 0 0 1-12 7.93 40.62 40.62 0 0 0 11.9-8.06 39.61 39.61 0 0 0 6.14-7.5zm-6.36 7.88a40.26 40.26 0 0 0 6.39-7.89l.55-.09a41.6 41.6 0 0 1-6.8 8.14 44.12 44.12 0 0 1-9.78 6.93s-1.57.73-2.37 1a41.06 41.06 0 0 0 11.98-8.09zm7.16-8c-.52.8-1.08 1.61-1.69 2.44.59-.83 1.06-1.61 1.59-2.43zm.6-1.24l.06-.09h.15a.56.56 0 0 1-.05.08zm-.16 1.17h.25a43.06 43.06 0 0 1-3.65 5 40.52 40.52 0 0 0 3.37-5.01zm.68-1.23a.59.59 0 0 0 0-.08h.3a.25.25 0 0 1 0 .07zm1-2.49H43.8l1.42-.16c-.03.04-.05.1-.08.15zm-1.53 2.56l-1.13.13.85-.19h.34a.41.41 0 0 1-.14.05zm-1.89 1.45a41.15 41.15 0 0 1-6.26 7.32 40.31 40.31 0 0 1-12.57 8.11 24.93 24.93 0 0 1-3.17.91h-.1.1c6.14-1.65 10.93-5 15.53-9.24a40.55 40.55 0 0 0 5.65-6.75 42.8 42.8 0 0 1-5.78 6.61c-1.17 1.07-2.32 2-3.58 3a46.46 46.46 0 0 0 3.52-3.06 42.41 42.41 0 0 0 5.58-6.72zm-7.2 6.4a42.27 42.27 0 0 1-9.17 6.48 40.5 40.5 0 0 0 9-6.68 39.59 39.59 0 0 0 4.86-5.82l.79-.13a44.78 44.78 0 0 1-5.48 6.15zm3.14-6.2l.11-.16h.28l-.09.14zm-.1.45a47.33 47.33 0 0 1-4.17 4.55l-.54.5.52-.51a39 39 0 0 0 3.93-4.5zm.8-.64h.59l-.63.08zm.68 0h.3-.32zm.12.41a41.59 41.59 0 0 1-5.09 5.54c-.76.69-1.52 1.33-2.32 2 .79-.66 1.53-1.32 2.27-2a38.88 38.88 0 0 0 4.68-5.41zm-2.51-.23l.69-.11h.12c-.06.06-.11.13-.16.19l-.8.11zm-.48.71l.73-.12a44.33 44.33 0 0 1-3.88 4.07 40.84 40.84 0 0 1-8.25 5.85 38.39 38.39 0 0 0 8-6.08 38.58 38.58 0 0 0 3.28-3.71zm9.4-1.37h.32a42.62 42.62 0 0 1-8.2 10.29l-.44.41.43-.41a41.14 41.14 0 0 0 7.89-10.32zM38 63.34a41.81 41.81 0 0 0 8-10.5l.49-.06A43.31 43.31 0 0 1 38 63.39c-1.31 1.2-2.59 2.27-4 3.34a51 51 0 0 0 4-3.39zm8.34-11.66a.41.41 0 0 1 .05-.09l-.06.09h-.57l-.88.08v-.07l2.3-.23a1.09 1.09 0 0 0-.08.15zm1.16-.22l1.34-.14c0 .08-.07.16-.11.23l-1.31.07a.8.8 0 0 0 .03-.16zm1.65-.17l1-.1c0 .11-.09.22-.14.33H49a2.44 2.44 0 0 1 .1-.23zm3.69-.86c-.14.36-.28.73-.43 1.08h-1c.06-.15.12-.31.17-.47l.16-.42zm-1.18-.09l-1-.05c0-.12.09-.23.13-.34l.71-.13h-.65l.09-.28 1.06-.15c-.14.32-.26.61-.39.95zm.75-2.06c-.11.34-.23.68-.35 1h-1.12c.08-.25.17-.49.25-.75h.22-.21zm-.8-1.28c-.11.38-.21.78-.33 1.15l-1-.05v-.12c.08-.26.15-.53.22-.81zm-1.07-.26h-1.39a.5.5 0 0 0 0-.13l1.44-.15zm-1.4 0H48l1.15-.12a1.12 1.12 0 0 0-.01.04zm1.52-.37h-1.87l1.93-.21zm-.34-.65l.57-.07c0 .15-.08.29-.13.44h-2.72c-.04-.09 1.52-.3 2.28-.45zm-1.42 1.61l-.18.5h-2.23v-.18zm-2.45.31c0 .06-.05.11-.07.17h-.47v-.13zm-1.29.11a3.45 3.45 0 0 0 .68 0l-.05.12c-.75 0-1.52.07-2.31.14v-.11zm-.95-2.12l-1.53.12h-.33a.19.19 0 0 0 0-.08c.62 0 1.24-.07 1.85-.12zm-4.36.27l-.06.14-1 .1h-.25zm-4.53 3.23l-.37.06 3.24-.62-.1.17c-.93.11-1.85.26-2.77.39zm-.55 4.71h.19l-.22.24h-.17a2.43 2.43 0 0 0 .2-.24zM31.94 57c.79-.79 1.5-1.56 2.18-2.35h.13c-.73.8-1.49 1.6-2.31 2.38l-.39.36zm-13.25 8.32l.46-.11c5.1-1.5 9.19-4.38 13.05-8 .91-.9 1.75-1.81 2.56-2.74l1.18-.2a42.14 42.14 0 0 1-3.31 3.4c-4.09 3.6-8.52 6.59-13.87 7.94a7.87 7.87 0 0 1-3.64.13 1.05 1.05 0 0 1-.3-.15s.31.08.31.09a6 6 0 0 0 1.74 0 4.1 4.1 0 0 1-1.67-.23s-.17-.08-.18-.13a.48.48 0 0 0 .19.09 7.46 7.46 0 0 0 3.48-.09zm-8.08-22.68C9.66 44.84 8.8 47 8 49.27a53.29 53.29 0 0 0-2.34 8.86 25.19 25.19 0 0 0-.25 6.66 15.32 15.32 0 0 0 .48 2.5 12.23 12.23 0 0 0 .45 1.33 9.79 9.79 0 0 0 2.43 3.56 9.62 9.62 0 0 0 3.55 2.07 15 15 0 0 0 7.65.24l.8-.18c7.07-1.87 12.41-5.46 17.7-10.4a41.33 41.33 0 0 0 8.34-11.18l1.36-.19A43 43 0 0 1 42 61.31s1.65-2 2.41-3.11a50.29 50.29 0 0 1-5.61 6.06c-5.45 4.83-10.88 8.33-18 10.15a15.83 15.83 0 0 1-8.5-.09 9.54 9.54 0 0 1-3.59-2.08 9.63 9.63 0 0 1-1.9-2.41c-.22-.39-.39-.76-.57-1.16-1.35-3.59-1.24-6.81-.67-10.56a61.7 61.7 0 0 1 3.66-12.56c.41-1 .83-2 1.27-3 2-4.5 4.14-8.69 6.61-13 0 0 .85-1.44 1-1.66a130 130 0 0 0-7.5 14.75zM3.88 72.45v-.07zM42.77 56.62zM3.88 72.45zM49.76 1.82h-.02.02zM49.77 1.82z"></path><path d="M45.24 14.68v.06a2.93 2.93 0 0 1 .52 0l-.19-.13h-.35z"></path><path d="M45.6 14.62a1 1 0 0 1 .42 0l-.11-.11a2 2 0 0 0-.43 0l.1.12z"></path></g></svg></svg> <!----></g></g></g><g transform="translate(36.75625672878636, 0)"><g><g><rect fill="#333" fill-opacity="0" stroke-width="2" x="0" y="0" width="34.15720234022219" height="50.00029619144274"></rect> <svg x="0" y="0" width="34.15720234022219" height="50.00029619144274" filtersec="colorsb7897488040" style="overflow: visible;"><svg xmlns="http://www.w3.org/2000/svg" viewBox="0 -0.0015400770353153348 58.375709533691406 85.4515380859375"><g fill="#00accc"><path d="M4.94 64.66zM56.12 22.72a19.17 19.17 0 0 0 2-5.54 14.28 14.28 0 0 0-.15-6.07 13.16 13.16 0 0 0-2.86-5.55A14.58 14.58 0 0 0 50.33 2a21.21 21.21 0 0 0-9.25-2c-.68 0-1.34 0-2 .06C30 .91 23 4.24 15.4 9a75.28 75.28 0 0 1 12.76-5.74 61.53 61.53 0 0 0-7 3.1 60.21 60.21 0 0 1 11-4s-1.9.61-2.83 1a46.58 46.58 0 0 1 7.23-1.48l-.63.11C27.16 3.57 20.49 7.13 13.19 12.1c7.07-4.24 13.36-7.28 21.46-9h.26a45.93 45.93 0 0 0-7.72 2.55 52.12 52.12 0 0 1 7.26-1.93 45.46 45.46 0 0 0-6 1.88A70 70 0 0 0 14.34 13a81.34 81.34 0 0 1 10.25-5.54 59.94 59.94 0 0 1 5.82-2A64.65 64.65 0 0 0 16 12.49a70.77 70.77 0 0 1 13.47-6.37L28 6.67a40.57 40.57 0 0 1 11.3-2.45 18.3 18.3 0 0 1 9.15 1.52 10.4 10.4 0 0 1 3.38 2.58A8.85 8.85 0 0 1 53 10a9.56 9.56 0 0 1 .8 2.06v.09a10.49 10.49 0 0 1 .2 2.19 10.37 10.37 0 0 0-.27-2.22l-.09-.31a8.82 8.82 0 0 0-1.86-3.46 10.27 10.27 0 0 0-3.33-2.55 17.89 17.89 0 0 0-9.11-1.42 36.31 36.31 0 0 0-8.74 1.91 58 58 0 0 0-8.06 3.48S25 8.65 26.22 8.14a70.34 70.34 0 0 0-9.53 5.3c6.9-3.91 13.25-6.78 21.17-7.84a37.6 37.6 0 0 0-8 2.21 42 42 0 0 1 7.44-1.6 42.47 42.47 0 0 0-11.65 3.92 72.56 72.56 0 0 0-8.27 4.6A59.36 59.36 0 0 1 35 7.31l1.07-.19c-6.31 1.31-11.23 3.67-16.74 6.94a60 60 0 0 1 14-5.88c-.06 0-2.08.65-3.08 1a38.53 38.53 0 0 1 8-1.77 42.75 42.75 0 0 0-14.88 5.39 53.4 53.4 0 0 1 11.45-4 46.27 46.27 0 0 0-7.9 2.85s1.73-.7 2.6-1a64.78 64.78 0 0 0-13.21 7.45 70.8 70.8 0 0 1 14.46-7l-.34.14s1.49-.46 2.25-.65a56.85 56.85 0 0 0-12.53 5.91 59.42 59.42 0 0 1 13-5.68s1.52-.36 2.29-.51a45.37 45.37 0 0 0-10.86 4.47c-1.49.79-2.9 1.6-4.29 2.47.06-.16.11-.32.16-.47l-.2.5c-.76.47-1.53 1-2.29 1.47.75-.47 1.49-.91 2.23-1.34l-.81 2c-.37.25-.73.48-1.09.74l1-.61-.46 1.12.08-.25S16.1 26.74 14.8 30c0 0 1.5-4.18 2.22-6.28 0 0-2.53 6.16-4.32 10.68l-.22.08c0-.1.08-.19.11-.29s4.66-12.71 5.09-13.93c-1.92 4.57-3.75 9.14-5.53 13.76 0 0-.11.25-.27.67l-1.88.67 1.9-.61c-.13.33-.28.74-.46 1.24l-1.1.41 1.07-.33c-.15.4-.31.84-.49 1.31l-.37.13.37-.12a602.52 602.52 0 0 0-3.84 10.52l-.51 1.32c-.17-.07-4.48 12.78-4.86 14 0 0 1.39-3.07 2.06-4.62 0 0-1.83 5.06-2.71 7.6C3 61.65 4.81 57.08 6.58 52.46c0 0 2.07-5.5 2.26-6 0 0-.34 1.1-.51 1.63l-.76 2L2.49 64c0-.12 1.64-3.93 2.42-5.85 0 0-1.95 5.65-2.83 8.5 0 0 2.25-5 3.31-7.57 0 0-1.11 3.36-1.64 5.06 0 0 1.4-3.08 2.07-4.63 0 0-1.84 5.06-2.72 7.61 0 0 1.63-3.9 2.42-5.86 0 0 1.91-4.65 2.83-7 0 0 1.19-2.65 1.77-4 0 0-1.34 3.62-2 5.45 0 0-.91 2.46-1.35 3.71 0 0-1.24 3.49-1.85 5.25l.33-.8s-.77 2.4-1.15 3.6c0 0 1.73-3.83 2.55-5.77 0 0-.26.86-.4 1.29 2.08-4.53 4-9 5.75-13.68 0 0 1-2.7 1.84-5l.17-.06c-.42 1.13-.93 2.52-1.26 3.44l-.33.85q-1 2.48-2 5c-.17-.07-4.48 12.78-4.86 14 0 0 2.46-5.5 3.61-8.29 0 0-1.51 4.19-2.24 6.29l2-4.75s-1.2 3.37-1.79 5.06c0 0 1.77-4.23 2.62-6.36 0 0-1 2.95-1.42 4.43L8 65.06s1-2.3 1.43-3.45c1.68-3.78 3.22-7.54 4.71-11.4l.77-2h.14c-.85 2.06-1.69 4.13-2.49 6.22-.17-.07-4.48 12.78-4.87 14 0 0 1.5-3.31 2.21-5 0 0-1.15 3.46-1.7 5.2 0 0 1.21-2.72 1.8-4.08l-.75 2.16s2.45-5.92 3.63-8.91l.43-1s-2.25 6.06-3.31 9.11c0 0 2.47-6 3.66-9 0 0-2.2 6-3.25 9 0 0 2.53-6.11 3.75-9.18l.64-1.43s-2.47 6.72-3.64 10.1c0-.09 1.33-3.17 2-4.73 0 0-1.67 4.85-2.66 7.91A62.66 62.66 0 0 1 2.77 71a36.23 36.23 0 0 0 6-1.14A46.54 46.54 0 0 1 0 71.76a38.93 38.93 0 0 0 12.22-2.68l-.05.16A54.4 54.4 0 0 1 2.52 72a41.25 41.25 0 0 0 7.76-1.73 55.4 55.4 0 0 1-10.2 2.58 34.24 34.24 0 0 0 9.47-1.5A61 61 0 0 1 3 73.18 39.91 39.91 0 0 0 9.37 72 49.07 49.07 0 0 1 .1 74a36.11 36.11 0 0 0 7-1 50.21 50.21 0 0 0 6.9-2.17l-.15.41s.07-.16.17-.42c1.51-.59 3-1.25 4.59-2a72.16 72.16 0 0 0 8.07-4.37 87 87 0 0 1-10.37 5.81c-2 .9-4 1.68-6.06 2.4a55.74 55.74 0 0 1-7.08 1.83l1-.14s-2.62.52-3.94.71a34.4 34.4 0 0 0 7.21-.86l-1.72.48C15.24 73 22.61 69 30.56 63.52l.44-.32a46.44 46.44 0 0 0 10.5-10.13c.63-.82 1.2-1.63 1.76-2.51a20.55 20.55 0 0 0 2.33-5.06 20.72 20.72 0 0 1-2.27 5.1 37.44 37.44 0 0 1-2.86 4.09 52.24 52.24 0 0 1-6.94 6.77l-1.39 1.06-1.05.76A99.4 99.4 0 0 1 21.93 69c-7.2 3.8-13.15 6.14-21.17 7.43a40.12 40.12 0 0 0 11.71-2.22 57.56 57.56 0 0 1-9.08 2.48 45.8 45.8 0 0 0 6.85-1.43A54 54 0 0 1 3.17 77a46.72 46.72 0 0 0 9.46-2.19A67.23 67.23 0 0 1 6 76.93h.07c-.05 0-1.1.25-1.63.35a48.28 48.28 0 0 0 5.06-1C18 74 24.42 70.5 31.66 65.53l.68-.49c1.41-1 2.71-2 4-3.16A49.21 49.21 0 0 0 42 56.41s.34-.38.5-.58a51.424 51.424 0 0 1-3.31 3.76 66.34 66.34 0 0 1-6.8 5.49A101.3 101.3 0 0 1 22.87 71c-7.48 3.92-13.67 6.32-22 7.62a38.41 38.41 0 0 0 6.75-.81 59.57 59.57 0 0 1-6.73 1.38 38.59 38.59 0 0 0 5.46-.57s-2 .42-2.95.59a52.59 52.59 0 0 0 14.53-4.07s1.27-.53 1.9-.81a64.34 64.34 0 0 1-15.09 5.14A55.61 55.61 0 0 0 20 74.7a66.71 66.71 0 0 1-15.11 5.17 56.73 56.73 0 0 0 15.88-5.07s2-.93 3-1.43A68.69 68.69 0 0 1 6 80.19a52.75 52.75 0 0 0 7.82-2A61.66 61.66 0 0 1 1 81.41c6.49-.27 11.69-1.8 17.68-4.25a73.23 73.23 0 0 1-12.13 4.26 50.86 50.86 0 0 0 6.78-1.57 62.51 62.51 0 0 1-8.15 2.21c10.11-1.64 17.76-5.37 26.37-10.83 1.19-.78 2.35-1.58 3.5-2.41a65.31 65.31 0 0 0 6.55-5.41c-.06.05-1.59 1.54-2.4 2.26a75.353 75.353 0 0 1-4.12 3.19c-.63.45-1.26.9-1.91 1.33-8.08 5.39-15 9-24.4 11.61a57.42 57.42 0 0 1-8 1.42 47.84 47.84 0 0 0 11.43-2 68.93 68.93 0 0 1-7.58 2 53.59 53.59 0 0 0 14.53-3.88 74.27 74.27 0 0 1-12.26 4.27c10.25-1.75 18-5.6 26.66-11.23 0 0-3.74 2.54-5.67 3.72 0 0 3.66-2.06 5.44-3.19-2.67 1.75-5.27 3.3-8.09 4.8C17 81.88 10 84.44.84 85.44a50.59 50.59 0 0 0 11.89-2.08 71.24 71.24 0 0 1-7.87 2.09c10.42-1.29 18.39-5 27.3-10.41 1.69-1.08 3.32-2.19 5-3.36 6.25-4.61 10.9-9 15.1-15.59a30.16 30.16 0 0 0 3.67-8.48 18.26 18.26 0 0 0 .07-9.17 15 15 0 0 0-1.27-3.23 14.43 14.43 0 0 0-4.29-4.9h-.09a30.61 30.61 0 0 0 5.77-7.59zm-7.45-3.24s.21-.35.3-.53a19.73 19.73 0 0 1-2.28 3.51 35.76 35.76 0 0 1-4 3.78c-.36.3-.73.57-1.1.85h-.07c.37-.29.75-.59 1.12-.9l1.6-1.44a24.26 24.26 0 0 0 4.43-5.27zm-5.54 12.29h-.06l.3-.22h.07a.39.39 0 0 0-.1.08zm-4.75 7.35h-.32zm-10.14 3.74q-1.56.7-3.15 1.38l.37-1c2-.77 3.92-1.56 5.79-2.4.63-.13 1.27-.25 1.9-.36-1.52.78-3 1.5-4.58 2.2l-1.42.48zM15 41h.2c-.06.17-.12.34-.17.5l-.2.07c.07-.2.13-.36.15-.44zm4.31-16.18s1.17-3.3 1.75-5c0 0-1 2.48-1.55 3.73v-.13s1-2.84 1.68-5.09l1.75-1c-.24.55-.52 1.21-.85 2l-.45.29.43-.23c-1.12 2.57-2.58 6-3.45 8.19 0 0 1-3.17 1.54-4.77.05.07-.55 1.38-.84 2.04zm15.8-10.26s-1.71.54-2.55.85a36.71 36.71 0 0 1 4.48-1.13 41.92 41.92 0 0 0-11.4 4.5c.15-.48.3-.94.44-1.36a42.74 42.74 0 0 1 12.54-3.92 30.06 30.06 0 0 0-5.52 1.59s1.35-.36 2.02-.5zM22.18 26.08s1.4-3.86 2.36-6.58l.7-.37c-.79 1.8-1.84 4.2-2.47 5.74l.07-.23zM23.61 20l.83-.45c-.7 1.71-2 4.81-2.72 6.65 0 0-.47 1.07-.7 1.61 0 0 1.66-4.89 2.43-7.35zm1-.59c.14-.39.26-.75.37-1.08l-.46 1.13-.85.5c.14-.39.34-1 .55-1.58.6-.3 1.19-.6 1.79-.88-.18.39-.41.91-.67 1.5zm8.85-5.82a49.25 49.25 0 0 0-7.25 3.1 57.05 57.05 0 0 1 5.74-2.34l-.17.07A52.87 52.87 0 0 0 26.23 17l.09-.28-.14.31c-.63.34-1.26.69-1.89 1.07.18-.53.36-1.05.5-1.44l-.62 1.51c-.51.3-1 .61-1.55.94.21-.62.41-1.21.59-1.77a50.74 50.74 0 0 1 13.52-5 36.6 36.6 0 0 0-6.2 2.13s1.91-.63 2.89-.88zM21 24.56l.35-1s-1.17 2.79-1.74 4.19 1.64-4.59 3-8.52l1.39-.78-.68 1.67-.52.31.51-.28c-.74 1.78-1.59 3.87-2.15 5.29 0 0-1.38 3.33-2.51 6.15h-.07c1-2.69 2.61-7.13 3.55-9.83.04.03-.74 1.87-1.13 2.8zm1.54 3.62s1.25-3.48 1.85-5.18l-.66 1.58s1-3 1.87-5.58c1.13-.58 2.28-1.12 3.47-1.64l-.36.18A35.66 35.66 0 0 1 40 14.69h.75-.74a27 27 0 0 0-6.14 1.41A26.91 26.91 0 0 1 40 15a14.59 14.59 0 0 1 2.34.08 2.2 2.2 0 0 1-.09.21 13 13 0 0 0-2.24 0 31.27 31.27 0 0 0-10.37 3.12 32.69 32.69 0 0 1 10.4-2.71 14.76 14.76 0 0 1 2 0 19.85 19.85 0 0 1-4.2 4.76l-1.58 1.34-1.26.92c-.92.63-1.84 1.23-2.76 1.81.34-1 .67-2.07 1-3.12 0 0-.75 1.67-1.54 3.45l-.31.19c.12-.36.24-.71.34-1l-.43 1.05c-.32.19-.64.4-1 .58.77-2.22 1.57-4.57 2.1-6.28 0 0-1.49 3.37-2.93 6.77l-.55.31s0-.11.05-.16l.03.18-.53.31c.08-.22 1.86-5.14 2.73-7.65 0 0-1.47 3.52-2.19 5.3 0 0-.71 1.58-1.2 2.72h-.05c.5-1.38 1.93-5.34 2.69-7.53 0 0-2 4.83-3 7.26l.3-.86s-.23.55-.59 1.44l-.6.32.18-.5s1.12-3.14 1.66-4.72c0 .05-.57 1.36-.84 2 0 0 1.19-3.55 1.75-5.34 0 0-2.17 5-3.91 9.15l-.29.15c.28-.86.57-1.74.77-2.38l-1.13 2.56-.26.12c.58-1.69 1.38-4 1.85-5.53 0 0 1.1-3.09 1.63-4.63 0 0-2.84 6.88-4.19 10.34l-.1.23c.59-1.61 2.52-6.91 3.53-9.81 0 0-2.26 5.44-3.35 8.18 0 0 .48-1.36.71-2l-1.68 4.05a.31.31 0 0 1-.1 0c.73-2.1 2.12-6.16 2.86-8.55-.04.05-2.12 4.7-3.1 7.05zM38 37.87h-.8l.32-.18h.72zm-2.77 1.53q-.67.1-1.35.24c.56-.27 1.11-.56 1.66-.85h.91zm-3.83.8l-1.4.69c-.88.27-1.75.57-2.64.89 2-.84 4.05-1.74 6.09-2.74h.14c-.74.4-1.47.8-2.21 1.18zm-5.63 2.23l.75-.3c.79-.24 1.59-.46 2.4-.68-1.11.54-2.24 1.07-3.38 1.59.08-.21.16-.41.23-.61zm-1.65-10.9zm4.13-3.43l-.09.21-.27.14.06-.19zm12.21 5.45h.08-.16a.18.18 0 0 0 .07-.05zm-4 2.57h-.29l.33-.12h.23zM23.54 36l.19-.07v.08l-.19.08zm.73-2l.28-.11c-.07.16-.14.33-.2.49l-.25.09zm3.27-3v.07zm-2.7-1.21l-.1.25-.14.06.08-.24zM26 29.4a.53.53 0 0 1 .12 0l-.13.06zm-1.4 1h-.1zm4.16 0l.23-.12-.25.57-.18.09zm4.48 3.87h.16l-1.93 1-.43.11zm1.21-.6l-.45.23h-.07l.46-.24zm2-.17h.09l-.2.12h-.13zm-2 .6l-1.45.83h-.12c.54-.25 1.12-.53 1.59-.82zm-2.11 1.17c-.65.35-1.3.69-2 1l-.45.12c.75-.36 1.51-.73 2.26-1.12zm1.13-.17h.35l-1.36.74-.59.12zm.79-.43c.4-.21.8-.42 1.2-.65h.21l-1.1.63zM37.42 33h.09zm-7.32 1.22l-1.23.33c1.43-.65 2.82-1.32 4.17-2h.29c-1.08.53-2.15 1.11-3.23 1.67zm-.71.36l-.81.42.08-.23zM28 32.47zm1.77-.66l.28-.06-.32.18zm6.23-.92zm-1.17.68h-.14l1.13-.66H36zM38 29.62l-.39.25h-.07zm-1.18.81l-.11.06h-.11l.13-.07zm-6 .93l-.8.17.89-.44.64-.14zM25 32.7l-.33.15.08-.22.32-.1zm-1.63 3.69l.18-.07c0 .09-.07.19-.11.28l-.17.08zm7.22-.8l.4-.08c-.94.5-1.89 1-2.84 1.43l-.39.13.06-.18c.96-.41 1.88-.89 2.81-1.3zm-2.3 1.74l-.77.37.06-.18zm-.9.7c.76-.33 1.52-.68 2.28-1l.92-.22c-.55.28-1.1.56-1.64.82l-1.58.49zm6.72-1.81l-.48.26h-.06zm2.64-.28h-.28.27zm1.41-1l.17-.11h.17l-.15.09zm1.27-.7h-.13l.3-.18h.1zm-1.1-4.88h-.03l.24-.16h.06zm-4.18 0q-.94.57-1.89 1.11l-.52.09c.71-.37 1.42-.77 2.12-1.17zm-3.73.64zm.57-.71c.57-.3 1.14-.6 1.71-.93l.68-.09L32 29zm2-1.11l.26-.15.57-.06-.17.11zm-2.19-1.34l.05-.14.11-.06-.05.13zm-.24.14l-.77.43v-.13l.79-.45zm-1.77 1l-.31.17.05-.18.34-.17zm-2.25 1l-.23.07.25-.11zm-2.39 1.09c0 .09-.08.18-.11.27h-.07l.09-.26zm-.28.65v.06zM25.32 32l-.14.33-.33.11.1-.28zm-1.26 2.6l.24-.07v.08l-.25.12zm-.14.87l-.07.18-.2.09.06-.19zM23.21 37l.15-.06-.27.68-.13.06zm-.73 2.2c-.06.14-.11.29-.17.43h-.08l.16-.43zm-.22.55l-.05.13-.11.29h-.06l.15-.42zm-.36.81l.1-.26h.06l-.14.39-.1.22h-.05zm5.48-2.35l1-.29-1.14.54zm2.42-.65c-.89.44-1.78.85-2.66 1.26v-.09c.91-.42 1.78-.8 2.66-1.21zm3-.64h.15l-1.41.77-.54.14c.63-.35 1.23-.65 1.83-.95zm2.7-.36h.28l-.6.34-.39.07zm-1.45.95c-.89.49-1.79 1-2.71 1.42-.39.1-.79.21-1.18.33 1.15-.53 2.28-1.09 3.4-1.67zm-5.85 2.37l-1.2.39c1-.39 1.94-.78 2.67-1.11zm-.73.58c.59-.18 1.18-.34 1.78-.5-1 .49-2.05 1-3.1 1.44.05-.15.11-.3.17-.45zm10.47-3l.53-.29h.62l-.42.24zm4.67-2.89h.12l-.09.07h-.14zm.25.16l.1-.06-.09.06zm.78-.48zm-.33-.09h-.07.07zm-2.13-1.11l.2-.14h.08a1.33 1.33 0 0 1-.19.14zm-1.38-4.64h-.06l.28-.2h.06zm-4.17.12h-.24l.94-.6h.22zM35 27.18h-.38c1-.56 2.1-1.22 2.83-1.71-.8.62-1.62 1.17-2.45 1.71zm2.25-4.57c-.62.47-1.24.92-1.87 1.36-1.24.84-2.47 1.6-3.71 2.34v-.1l1-.56a45.19 45.19 0 0 0 5.81-4.17s-.83.77-1.26 1.14zm-14.67 7.75h-.05zm-.2.51a1.6 1.6 0 0 0-.1.23l.08-.23zm-4.23 2.07l.16-.44zm-.07.14c-.05.12-.1.23-.14.34zm-.81 2.16l-.34.93.17-.46.19-.47zm-.37 1zm-.16.48c-.15.41-.31.86-.49 1.34h-.07c.18-.46.36-.92.52-1.36zm-.6 1.65c-.29.8-.59 1.66-.87 2.44l-.19.07c.18-.45.57-1.43 1-2.48zm6.55 0h.11-.11zm-5.81 4.76l.08-.19s-.05.06-.08.19zm4.89-2.25l-.17.37zm8.11-2.58l.7-.16c-1.3.67-2.6 1.31-3.92 1.93l.16-.41c1.02-.43 2.03-.89 3.06-1.36zm-1.22 2.37s-1.14.53-2.69 1.22l.05-.1c.87-.37 1.75-.73 2.64-1.12zm4.21-.55l.69-.33q.64-.1 1.29-.18l-.32.16c-.53.11-1.11.23-1.66.35zm5.88-1.39c.39 0 .78 0 1.17.05a11 11 0 0 1 1.78.35 12.11 12.11 0 0 0-1.79-.28h-1.37zm2.85-.58a10.58 10.58 0 0 0-1.46-.24c.48.07.94.15 1.43.27zm-1.45-1.57h-.63l.13-.08.5.06h.06-.06zm4.2-1.4a11.55 11.55 0 0 1 1.62.91 11.62 11.62 0 0 0-1.66-.88zm1.36-.82l-.14-.07zm-1.71-.7h.07zm-2.17-1l.17-.12h.06l-.16.12zm4.08-3.06h-.06.06zM40.34 28zm6.78-15.64a2.93 2.93 0 0 1 .65 1.2 4.25 4.25 0 0 1 0 1.74 8.42 8.42 0 0 1-.77 2.55l-.14.28a24.73 24.73 0 0 1-5.4 6.27s-.17.13-.16.14l-.66.54c-.87.66-1.74 1.29-2.62 1.9h-.19c.66-.45 1.31-.91 2-1.4.48-.37 1-.75 1.41-1.15a22.22 22.22 0 0 0 5.65-6.67 9.5 9.5 0 0 0 .53-1.23 8 8 0 0 0 .36-1.24 4.11 4.11 0 0 0 0-1.71 2.76 2.76 0 0 0-.61-1.19 4.08 4.08 0 0 0-.9-.76 3.79 3.79 0 0 1 .85.75zm-4.35 2.78a2.61 2.61 0 0 0 .27-.71v.1c0 .1-.18.42-.29.63a3.74 3.74 0 0 1 .62.17 1.34 1.34 0 0 0 .11.14 1.09 1.09 0 0 0 .19.18h-.06a3.55 3.55 0 0 0-.76-.24 2.14 2.14 0 0 1-.1-.22 1.62 1.62 0 0 1-.1.18l.09-.19zm2.95-3.79a3 3 0 0 1 .36.19c-.15-.08-.36-.18-.36-.19zm-25.47 6a59.52 59.52 0 0 1 12.42-5.62 33.29 33.29 0 0 1 7.07-1.26 15.41 15.41 0 0 1 4.49.34h.06a14.49 14.49 0 0 0-4.55-.31 35.81 35.81 0 0 0-12.24 3.67s2.85-1.14 4.31-1.61l-1.44.55a41.64 41.64 0 0 1 5.88-1.62 45.31 45.31 0 0 0-12.87 5.35c.09-.3.19-.6.27-.87l-.42 1c-.63.37-1.25.76-1.88 1.15.14-.42.27-.82.37-1.16l-.56 1.29q-.78.49-1.56 1c.23-.68.45-1.31.65-1.87zm-2.66 8l.7-2s-1 2.35-1.47 3.53c0 0 1.51-4.1 2.72-7.51.49-.28 1-.57 1.47-.84-1.09 2.47-3.16 7.25-4.27 10.07 0 0 1.05-3.17 1.54-4.77zm.92 6.57h.06l-.11.27h-.05zm-6.07 2.65l.22-.07c-.17.41-.33.82-.48 1.2l-.21.08c.16-.42.32-.78.47-1.22zm-.52 1.34l.21-.07-.31.8-.22.49-.18.06c.17-.43.33-.86.5-1.29zm-.34 1.27c-.16.34-.37.82-.59 1.32h-.1l.51-1.31zm-.69 1.36h.1c-.28.62-.57 1.27-.77 1.75.23-.62.45-1.19.67-1.76zm3 5.73l.92-2.6.19-.07q-.13.42-.27.78L14 44.19zm2.93-.9l-.67 2-.17.06c.29-.72.59-1.49.81-2zm-1.92 4.78c.13-.33.22-.59.25-.66l.79-2h.18l-.09.28c-.33.78-.65 1.57-1 2.36zm14.59-5.4s-2.18 1-4.59 2.07l.07-.2c1.48-.62 3.03-1.22 4.5-1.88zM15.55 66.47c-.72.35-1.43.69-2.16 1 .5-1.11 2.45-5.5 3.43-7.87 0 0-1.58 4.65-2.3 7 2-4.36 3.8-8.68 5.53-13.15 0 .06-.55 1.73-.81 2.58 0 0 .7-1.53 1-2.3 0 0-.93 2.38-1.39 3.58zm1.32-2.7l-.8 2.46-.24.11c.39-.94.76-1.86 1.04-2.57zm-4 3.91c.65-1.57 1.44-3.49 1.95-4.76 0 0-1 2.9-1.48 4.57zm-2.32.94c.87-2 3.1-7.13 4.26-10 0 0-1.61 4.76-2.35 7.15 0 0 1.2-2.64 1.78-4 0 0-1.2 3.38-1.79 5.08 0 0 3.75-9.15 5.52-13.77l2-5.33s-.34 1-.5 1.56l-1.2 3.09-4.51 12.36s-.52 1.45-1.07 3c-.69.3-1.41.59-2.13.86zm1.7.58l.06-.16c.91-.34 1.8-.72 2.7-1.12v.14c-.93.4-1.84.78-2.75 1.14zm3-1.37l.39-.18v.14l-.41.18zM28.74 60l-.75.57c-1.34.93-2.67 1.81-4 2.68a88.58 88.58 0 0 1-8.29 4.49.77.77 0 0 0 .07-.16c1.17-.53 2.33-1.09 3.52-1.69A83.42 83.42 0 0 0 28.7 60l1.9-1.44c-.6.44-1.23.97-1.86 1.44zm12.71-17.69l.11.09zm.28-.13a5.92 5.92 0 0 0-2.11-.5 14.81 14.81 0 0 0-1.49 0 14.76 14.76 0 0 1 1.48.12 5.74 5.74 0 0 1 1.83.51 5.08 5.08 0 0 1-.18 1.69A14.58 14.58 0 0 1 40 47.1c-.21.35-.43.69-.65 1a33.21 33.21 0 0 1-2.32 3 30.06 30.06 0 0 0 2.22-3A16.23 16.23 0 0 0 41 44.35l.11-.4a6 6 0 0 0 .18-1.36 5.42 5.42 0 0 0-1.71-.37 20.61 20.61 0 0 0-5.31.48 19.46 19.46 0 0 1 5.28-.2 8.06 8.06 0 0 1 1.23.26l-.13 1.07c0 .13-.06.26-.1.38a16.13 16.13 0 0 1-1.69 3.62A42.49 42.49 0 0 1 28 59l-1.29 1c-.88.6-1.76 1.19-2.65 1.76-2.63 1.63-5.11 3.05-7.6 4.3 1.63-3.68 3.15-7.35 4.6-11.13 0 0 1.84-4.85 3.67-9.72 2.94-1.09 5.74-2.25 8.47-3.55l.74-.14-.37.08a21.66 21.66 0 0 1 6.07-.15 4.76 4.76 0 0 1 2.12.7s.06.07 0 0 .03.07-.03.03zm-2-1.79a18.52 18.52 0 0 0-2 .06s1 .06 1.57.14h-2.05a16.15 16.15 0 0 1 2.41.12 8.15 8.15 0 0 1 1.44.29 9.4 9.4 0 0 0-1.39-.24 22.41 22.41 0 0 0-5.71.45c.73-.36 1.45-.72 2.17-1.1a21.65 21.65 0 0 1 3.6.06 6.74 6.74 0 0 1 2.59.76 7.34 7.34 0 0 0-2.61-.54zm6 4.7l-.08.29.08-.29zm.27-2.35a6.22 6.22 0 0 0-.19-1.61 4.08 4.08 0 0 0-1.63-2.33 8 8 0 0 0-3.5-1.22l.25-.14a7.73 7.73 0 0 1 3.29 1.31 4.18 4.18 0 0 1 1.6 2.38 6.2 6.2 0 0 1 .18 1.55zM46 34l.77.46c-.23-.23-.49-.38-.77-.46zm5.89 5.56a14.31 14.31 0 0 1-.12 7.09 23.81 23.81 0 0 1-1.59 4.32s-.72 1.43-.79 1.55c-.27.47-.55.92-.85 1.37l-.18.28s.17-.29.18-.29c.31-.51.61-1 .89-1.54a24.51 24.51 0 0 0 2.28-5.71 14.11 14.11 0 0 0 .07-7 10.19 10.19 0 0 0-4-5.73c-.31-.21-.61-.4-.92-.57l.18-.15c.28.17.57.36.86.57a10.41 10.41 0 0 1 4.01 5.76zm-4.85-11c.83-.78 1.63-1.57 2.42-2.45-.16.18-1.49 1.65-2.21 2.37l-.13.11zM42.78 15.18z"></path><path d="M41.23 42.35a1.5 1.5 0 0 1 0 .24h.12z"></path></g></svg></svg> <!----></g></g></g><g transform="translate(70.91345906900855, 0)"><g><g><rect fill="#333" fill-opacity="0" stroke-width="2" x="0" y="0" width="34.53191455227252" height="49.99987627747092"></rect> <svg x="0" y="0" width="34.53191455227252" height="49.99987627747092" filtersec="colorsb8288612961" style="overflow: visible;"><svg xmlns="http://www.w3.org/2000/svg" viewBox="0.0047547053545713425 0 56.162452697753906 81.31963348388672"><path d="M29.42 22.55c.21.3.61.76.61.76 2.31 2.34 5.79 3.9 8.66 5.09 5.09 2.16 8.92 4.53 12.27 9.47a19 19 0 0 1 2.75 7.06 20.94 20.94 0 0 1 0 7.28 28.33 28.33 0 0 1-5.49 12.05A40.77 40.77 0 0 1 41 71.55c-.71.56-1.42 1.09-2.16 1.61A48.66 48.66 0 0 1 25 79.87c-4.78 1.33-8.88 1.93-13.78 1a14.29 14.29 0 0 1-6.49-3.08 13.15 13.15 0 0 1-4.4-7.44 18.2 18.2 0 0 1 .16-7.6 18 18 0 0 0 0 7.55 12.79 12.79 0 0 0 4.36 7.24 14 14 0 0 0 6.39 2.88c.53.09 1 .17 1.59.22l-1.58-.25a13.9 13.9 0 0 1-6.33-3 12.67 12.67 0 0 1-4.23-7.14 18.33 18.33 0 0 1 .42-8.71A37.8 37.8 0 0 1 5 52.76a37.24 37.24 0 0 0-3.73 8.82 18.17 18.17 0 0 0-.36 8.61 12.45 12.45 0 0 0 4.18 7 13.67 13.67 0 0 0 6.23 2.85c4.77.8 8.78.15 13.41-1.19a49.21 49.21 0 0 0 8-3.25 50.19 50.19 0 0 0 5.66-3.4 43.85 43.85 0 0 0 4.08-3.2 42 42 0 0 1-4.15 3.19c-.73.49-1.46 1-2.22 1.41l2.17-1.5a43.74 43.74 0 0 0 4.46-3.72A43.41 43.41 0 0 1 38.22 72a47.16 47.16 0 0 1-13.6 6.51c-4.57 1.26-8.54 1.85-13.22 1a13.09 13.09 0 0 1-5.94-2.83 11.64 11.64 0 0 1-3.78-6.34 11.46 11.46 0 0 0 3.87 6.21 12.84 12.84 0 0 0 5.9 2.63c4.63.72 8.54 0 13-1.29h.05-.06c-4.47 1.24-8.37 1.84-13 1A12.56 12.56 0 0 1 5.8 76.1a10.93 10.93 0 0 1-3.63-6.26 15.47 15.47 0 0 1 .1-6.32 15.4 15.4 0 0 0 0 6.27 10.74 10.74 0 0 0 3.65 6 12.31 12.31 0 0 0 5.6 2.49c.55.09 1.08.16 1.63.21-.55-.06-1.08-.14-1.62-.25A12.17 12.17 0 0 1 6 75.73a10.5 10.5 0 0 1-3.52-6 16 16 0 0 1 .4-7.59 34.73 34.73 0 0 1 3.53-8 34.42 34.42 0 0 0-3.4 8.06 15.82 15.82 0 0 0-.33 7.49A10.28 10.28 0 0 0 6.2 75.5l.25.2a12 12 0 0 0 5.18 2.24c4.46.73 8.27.07 12.59-1.18a47.66 47.66 0 0 0 13.1-6.44 41.35 41.35 0 0 0 5.08-4.22 36.48 36.48 0 0 0 3.52-4 31 31 0 0 0 2.82-4.5 23.38 23.38 0 0 0 1.82-5.28 25.29 25.29 0 0 1-4.67 9.75 37.74 37.74 0 0 1-5.17 5.53 41.52 41.52 0 0 1-3.42 2.68 46.1 46.1 0 0 1-13.12 6.34c-4.29 1.21-8.09 1.82-12.5 1a11.53 11.53 0 0 1-5.28-2.43 9.85 9.85 0 0 1-3.29-5.62A12.87 12.87 0 0 1 2.88 66a13.18 13.18 0 0 0 .28 3.6 9.69 9.69 0 0 0 3.31 5.52 11.36 11.36 0 0 0 5.24 2.35 19.24 19.24 0 0 0 3.93.31 19.8 19.8 0 0 1-3.91-.4 11.37 11.37 0 0 1-5.14-2.43 9.47 9.47 0 0 1-3-4.9 9.24 9.24 0 0 0 3.09 4.77 11.22 11.22 0 0 0 5.1 2.18c4.31.66 8 0 12.2-1.26l.8-.26-.8.25c-4.17 1.17-7.88 1.77-12.16 1a10.75 10.75 0 0 1-4.92-2.29 8.94 8.94 0 0 1-3-5.09 14.28 14.28 0 0 1 .41-6.72 31.62 31.62 0 0 1 2.85-6.58 30.71 30.71 0 0 0-2.6 6.65 14 14 0 0 0-.28 6.55A8.41 8.41 0 0 0 7.17 74a10.42 10.42 0 0 0 4.75 2.1 19.43 19.43 0 0 0 5.22.18 19 19 0 0 1-5.21-.28 10.25 10.25 0 0 1-4.66-2.15 8.24 8.24 0 0 1-2.74-4.69l-.06-.36.07.36a8.16 8.16 0 0 0 2.78 4.61A10.17 10.17 0 0 0 12 75.85c4.14.67 7.76 0 11.77-1.15a45.31 45.31 0 0 0 8.21-3.47C30.66 71.89 28 73 28 73a43.23 43.23 0 0 1-4.34 1.56c-4 1.12-7.6 1.72-11.69 1a9.92 9.92 0 0 1-4.49-2.07 7.74 7.74 0 0 1-2.58-4.41 11 11 0 0 1-.19-2.75A10.4 10.4 0 0 0 5 69.05a7.61 7.61 0 0 0 2.6 4.33 9.73 9.73 0 0 0 4.45 2c4.06.66 7.64 0 11.58-1.13 1.2-.37 2.36-.78 3.54-1.25-1.19.46-2.34.86-3.55 1.22-3.93 1.11-7.51 1.71-11.54 1a9.44 9.44 0 0 1-4.33-2A7.35 7.35 0 0 1 5.28 69a10.81 10.81 0 0 1-.17-2.84A10.72 10.72 0 0 0 5.33 69a7.25 7.25 0 0 0 2.48 4.1A9.51 9.51 0 0 0 12.1 75a24.93 24.93 0 0 0 11.42-1.12c1.19-.37 2.33-.78 3.49-1.24-.85.32-2.57.88-2.57.88l-.93.29c-3.87 1.09-7.4 1.7-11.37 1A9.23 9.23 0 0 1 8 72.82a6.83 6.83 0 0 1-2.31-3.95A12 12 0 0 1 6 63.2v-.11.11a12 12 0 0 0-.28 5.64 8.11 8.11 0 0 0 .38 1.21 8.42 8.42 0 0 1-.36-1.21 12.06 12.06 0 0 1 .39-5.6 29 29 0 0 1 2.55-5.9 28.82 28.82 0 0 0-2.34 6 11.6 11.6 0 0 0-.25 5.43 6.36 6.36 0 0 0 2.1 3.51 6.26 6.26 0 0 1-2-3.54 11.41 11.41 0 0 1 .38-5.32 29.11 29.11 0 0 1 2.48-5.72 27.93 27.93 0 0 0-2.23 5.77 10.91 10.91 0 0 0-.24 5.14 5.79 5.79 0 0 0 2 3.27 8.27 8.27 0 0 0 3.75 1.6 24 24 0 0 0 10.85-1.11 44.14 44.14 0 0 0 8.18-3.49 43.94 43.94 0 0 0 3.85-2.39 34.4 34.4 0 0 0 7.7-7.27A20.66 20.66 0 0 0 47 50.7c0-.22.08-.44.11-.67a11.88 11.88 0 0 0-.11-3.62 11.09 11.09 0 0 0-1.62-4l-.05-.07v.08a10 10 0 0 1 .55 1 10.69 10.69 0 0 1 1 3.06 12.14 12.14 0 0 1-.06 4.25A17.07 17.07 0 0 1 45.41 55a24.43 24.43 0 0 1-2.54 4.17c-.67.88-1.33 1.67-2.07 2.47a36 36 0 0 1-5.6 4.82 41.74 41.74 0 0 1-12.05 5.76c-3.63 1-7 1.57-10.75.84L12 73a7.6 7.6 0 0 1-3.16-1.52 5.22 5.22 0 0 1-1.74-3 7.54 7.54 0 0 1-.13-2 7.88 7.88 0 0 0 .17 2 5.92 5.92 0 0 0 .34 1v-.11A5 5 0 0 0 9 71.32a7.81 7.81 0 0 0 3.5 1.45 17.37 17.37 0 0 0 4.5.1 16.49 16.49 0 0 1-4.49-.23 7.45 7.45 0 0 1-3.38-1.52 4.78 4.78 0 0 1-1.6-2.76 9.87 9.87 0 0 1 .34-4.55v-.08.08a9.74 9.74 0 0 0-.25 4.52A4.55 4.55 0 0 0 9.18 71a7.45 7.45 0 0 0 3.32 1.4c.34.06.67.1 1 .14l-1-.16a7.34 7.34 0 0 1-3.27-1.48 4.5 4.5 0 0 1-1.52-2.61 9.18 9.18 0 0 1 .21-3.9 8.92 8.92 0 0 0-.12 3.88 4.3 4.3 0 0 0 1.52 2.49 7.07 7.07 0 0 0 3.23 1.37 16.77 16.77 0 0 0 4.42.15 15.92 15.92 0 0 1-4.41-.28 6.91 6.91 0 0 1-3.14-1.43A4.05 4.05 0 0 1 8 68.2a9.29 9.29 0 0 1 .4-4.2 26.37 26.37 0 0 1 2.18-5 25.31 25.31 0 0 0-2 5.12 8.68 8.68 0 0 0-.21 4 3.58 3.58 0 0 0 1.3 2.07 6.71 6.71 0 0 0 2.95 1.22 22.74 22.74 0 0 0 10-1.07 42.68 42.68 0 0 0 8-3.43 41.05 41.05 0 0 0 3.55-2.21 33 33 0 0 0 6.9-6.38l.35-.45c.37-.5.72-1 1.06-1.52a17.19 17.19 0 0 0 2.52-6.1 10 10 0 0 0 0-3.41A8.56 8.56 0 0 0 44 44l-.22-.35c-2.12-3-5-4.52-8.12-5.82a42.53 42.53 0 0 1-8.53-4.46c.47.33 1.24.86 1.25.84a48 48 0 0 0 7.27 3.66 19.08 19.08 0 0 1 6.77 4.32 10.47 10.47 0 0 1 1.25 1.55 8.38 8.38 0 0 1 1.26 3.1 9.72 9.72 0 0 1 0 3.36 18 18 0 0 1-3.54 7.54 27.19 27.19 0 0 1-1.75 2.11 33.11 33.11 0 0 1-5.46 4.74 39.81 39.81 0 0 1-11.53 5.5 21.13 21.13 0 0 1-9.91.79A5.85 5.85 0 0 1 10 69.67a2.83 2.83 0 0 1-.76-1.07 2.89 2.89 0 0 0 .82 1 5.29 5.29 0 0 0 .5.32 5.34 5.34 0 0 1-.48-.35 2.78 2.78 0 0 1-.94-1.66 8 8 0 0 1 .35-3.5 27.79 27.79 0 0 1 2.78-6 26.22 26.22 0 0 0-2.52 6.11 9.1 9.1 0 0 0-.32 2.38 9.44 9.44 0 0 1 .24-1.76 6.5 6.5 0 0 0-.08 2.67 2.24 2.24 0 0 0 .81 1.3 5.7 5.7 0 0 0 2.43 1 13.12 13.12 0 0 0 1.77.19 25.05 25.05 0 0 0 7.79-1.3c.46-.14.91-.29 1.37-.45a42.05 42.05 0 0 0 9.79-5.09c.87-.61 1.68-1.24 2.5-1.94-.83.68-1.65 1.29-2.53 1.89A40.65 40.65 0 0 1 26.87 67a40.22 40.22 0 0 1-4.56 1.67 20.43 20.43 0 0 1-9.36.87 6 6 0 0 1-1.81-.67 3.48 3.48 0 0 1-.39-.28 1.57 1.57 0 0 1-.56-1 7 7 0 0 1 .29-2.9 26.26 26.26 0 0 1 2.62-5.78 25.28 25.28 0 0 0-2.49 5.82 6.49 6.49 0 0 0-.22 2.8 1.3 1.3 0 0 0 .52.8 5 5 0 0 0 2.1.84c.31.06.61.1.93.13l-.94-.14a4.61 4.61 0 0 1-2-.91 1.2 1.2 0 0 1-.39-.76 5.72 5.72 0 0 1 .16-1.89 4.61 4.61 0 0 0 0 1.85.92.92 0 0 0 .41.53 4.9 4.9 0 0 0 1.94.71 11.58 11.58 0 0 0 1.32.14 11.48 11.48 0 0 1-1.31-.19 4.25 4.25 0 0 1-1.85-.8.61.61 0 0 1-.23-.46 6.38 6.38 0 0 1 .29-2.38 25.5 25.5 0 0 1 2.46-5.32 23.67 23.67 0 0 0-2.21 5.4 5.2 5.2 0 0 0-.17 2.18c0 .07.05 0 .13.11a4.54 4.54 0 0 0 1.65.63 12.25 12.25 0 0 0 2.49.14 10.89 10.89 0 0 1-2.48-.21 3.86 3.86 0 0 1-1.57-.65 6.41 6.41 0 0 1 .28-2 5.27 5.27 0 0 0-.18 2v-.08a4.26 4.26 0 0 0 1.52.54 20 20 0 0 0 8.59-1 39.05 39.05 0 0 0 10.61-5.21s1.08-.74 1.06-.77a32.6 32.6 0 0 0 3.62-3.25 26 26 0 0 0 1.73-2.16s.28-.41.44-.64l-.45.63a28.43 28.43 0 0 1-6.39 6.11 38.86 38.86 0 0 1-4.13 2.51 37.07 37.07 0 0 1-6.48 2.65 18.91 18.91 0 0 1-8.53.86A4.36 4.36 0 0 1 12 67v-.32a5.33 5.33 0 0 1 .24-1.35 23.54 23.54 0 0 1 2.3-5.08 22.89 22.89 0 0 0-2.18 5.13l-.1.92.23.06v-.2.22c.31.09.77.22.85.23a19.62 19.62 0 0 0 8.16-1 38.22 38.22 0 0 0 10.4-5.15s1.75-1.24 1.72-1.29c.81-.67 1.56-1.34 2.32-2.1a28.42 28.42 0 0 0 2.11-2.5 13.53 13.53 0 0 0 2.54-5.32 4.23 4.23 0 0 0 0-1.42 3.22 3.22 0 0 0-.5-1.17c-1.4-2-3.88-3.19-5.94-4.06a52 52 0 0 1-7.52-3.72 28 28 0 0 1-5.78-4.62 18.13 18.13 0 0 1-3.79-5.93 15.73 15.73 0 0 1-1-7.17A17 17 0 0 1 18 14.88a21.34 21.34 0 0 1 3.34-4.64A32.35 32.35 0 0 1 29.79 4 39.3 39.3 0 0 1 39.22.46c.83-.19 1.63-.34 2.46-.46-.83.14-1.63.3-2.45.5a40 40 0 0 0-9.36 3.66 32.61 32.61 0 0 0-8.37 6.32 21.89 21.89 0 0 0-3.26 4.59 16.56 16.56 0 0 0-1.81 6.13 15.23 15.23 0 0 0 1 7 17.7 17.7 0 0 0 3.71 5.78 28.36 28.36 0 0 0 5.71 4.54 51.75 51.75 0 0 0 7.46 3.7c2.11.9 4.52 2.07 6 4.11-1.33-2-3.53-3.15-5.51-4.08l-.46-.25c-4.94-2.07-9.17-4.2-13.1-8.24a17.43 17.43 0 0 1-3.65-5.73 15 15 0 0 1-.94-6.84 16 16 0 0 1 1.81-6 20.88 20.88 0 0 1 3.25-4.48 31.48 31.48 0 0 1 8.34-6.14c.47-.25.94-.48 1.42-.71l-1.41.74a32.07 32.07 0 0 0-8.23 6.25 20.81 20.81 0 0 0-3.17 4.48 15.89 15.89 0 0 0-1.75 5.91 15.51 15.51 0 0 0 0 2.55 15.27 15.27 0 0 1 1.8-8.43 20.55 20.55 0 0 1 3.2-4.36 31.3 31.3 0 0 1 8.28-6.05 37.89 37.89 0 0 1 9.24-3.34A27.53 27.53 0 0 1 42.92 1l-.92.15a18.43 18.43 0 0 1 6.33.12 10.07 10.07 0 0 1 4.49 2.12 9 9 0 0 1 2 2.4A9.43 9.43 0 0 1 56 9a11.21 11.21 0 0 1 .11 3.06A11.55 11.55 0 0 0 56 9a9.57 9.57 0 0 0-1.18-3.19 8.85 8.85 0 0 0-2-2.37 10 10 0 0 0-4.47-2.06 21.05 21.05 0 0 0-8.86.49 39.13 39.13 0 0 0-9.1 3.52 33.49 33.49 0 0 0-6.65 4.66 32.89 32.89 0 0 1 6.69-4.57c1.18-.62 2.33-1.14 3.56-1.64-1.22.52-2.36 1.07-3.53 1.71-.77.45-1.46.86-2.26 1.34l2.28-1.27c.77-.39 1.52-.74 2.3-1.08l-2.26 1.17a31.18 31.18 0 0 0-7.9 6.09 21.25 21.25 0 0 0-2.34 3.11 20.55 20.55 0 0 1 2.37-3.07 30.44 30.44 0 0 1 8-5.88 37.53 37.53 0 0 1 9-3.32 20.15 20.15 0 0 1 8.57-.3 9.27 9.27 0 0 1 4.07 2A7.9 7.9 0 0 1 54 6.41a8.55 8.55 0 0 1 1 2.82 10.59 10.59 0 0 1-.23 4.45A10.84 10.84 0 0 0 55 9.25a8.28 8.28 0 0 0-1-2.76 7.69 7.69 0 0 0-1.75-2 9 9 0 0 0-4-1.82 20.3 20.3 0 0 0-8.42.53 37.33 37.33 0 0 0-4.49 1.46l-.37.14a36.9 36.9 0 0 1 4.87-1.49 21.71 21.71 0 0 1 7-.55 21.83 21.83 0 0 0-7 .68 37.77 37.77 0 0 0-8.11 3.07 38 38 0 0 1 5.77-2.29 39.72 39.72 0 0 0-6.41 2.84 31.38 31.38 0 0 0-6.4 4.61 31 31 0 0 1 6.46-4.47A36.12 36.12 0 0 1 39.87 4 19 19 0 0 1 48 3.65a8 8 0 0 1 3.59 1.7 6.57 6.57 0 0 1 1.48 1.78 7.16 7.16 0 0 1 .84 2.36 9.83 9.83 0 0 1-.53 4.9 20.16 20.16 0 0 1-2 4 19.39 19.39 0 0 0 1.9-4.07 9.58 9.58 0 0 0 .43-4.78 6.77 6.77 0 0 0-.83-2.25 6.57 6.57 0 0 0-1.43-1.66 7.82 7.82 0 0 0-3.48-1.56 19.27 19.27 0 0 0-7.97.52 37.26 37.26 0 0 0-8.53 3.35 31.85 31.85 0 0 0-5.69 3.89A31 31 0 0 1 31.49 8a36.88 36.88 0 0 1 5.71-2.37c-.93.37-2.74 1.07-2.74 1.07a35.65 35.65 0 0 1 5.59-1.79 26.7 26.7 0 0 1 2.65-.46c-.9.13-1.75.3-2.64.51a36.82 36.82 0 0 0-8.46 3.32 28.46 28.46 0 0 0-7.31 5.51 16.57 16.57 0 0 0-2.56 3.59 11.43 11.43 0 0 0-1.28 4.29 10.15 10.15 0 0 0 .67 4.67 13.12 13.12 0 0 0 2.78 4.29l.5.51-.5-.51a13.31 13.31 0 0 1-2.77-4.29 10.29 10.29 0 0 1-.65-4.67 11.38 11.38 0 0 1 1.31-4.26 16.29 16.29 0 0 1 2.57-3.54 27.53 27.53 0 0 1 7.34-5.35l1-.49a34.8 34.8 0 0 1 7.46-2.67 18 18 0 0 1 7.6-.36 7.1 7.1 0 0 1 3.1 1.44 5.34 5.34 0 0 1 1.19 1.43 5.85 5.85 0 0 1 .68 1.89 8.33 8.33 0 0 1-.46 4.17A17.08 17.08 0 0 1 50.8 17a17.54 17.54 0 0 0 1.42-3.11 8.34 8.34 0 0 0 .4-4.12A5.53 5.53 0 0 0 51.94 8a5.18 5.18 0 0 0-1.17-1.37 6.85 6.85 0 0 0-3.05-1.37h-.29a18.82 18.82 0 0 0-7.23.6 36.91 36.91 0 0 0-8.27 3.3 32.05 32.05 0 0 0-4.55 3 30.57 30.57 0 0 1 4.24-2.69l.36-.2a34.62 34.62 0 0 1 8.29-3.1 17.64 17.64 0 0 1 7.37-.35 6.57 6.57 0 0 1 2.82 1.31 4.61 4.61 0 0 1 1 1.24 5 5 0 0 1 .58 1.62 6.6 6.6 0 0 1 0 2.26 6.54 6.54 0 0 0 0-2.25 4.67 4.67 0 0 0-.59-1.6 4.43 4.43 0 0 0-1-1.2 6.2 6.2 0 0 0-2.8-1.24 17.84 17.84 0 0 0-7.3.46 35.3 35.3 0 0 0-7.88 3 38.36 38.36 0 0 1 4-1.68l-.61.25a33.39 33.39 0 0 1 4.54-1.38 16.84 16.84 0 0 1 7.2-.3 5.82 5.82 0 0 1 2.63 1.22 4.46 4.46 0 0 1 .91 1.11 4 4 0 0 1 .5 1.44 6.91 6.91 0 0 1-.42 3.43 18.68 18.68 0 0 1-2.26 4.18 18.22 18.22 0 0 0 2.04-4.3 6.69 6.69 0 0 0 .32-3.32A3.83 3.83 0 0 0 50 7.78a5.56 5.56 0 0 0-2.5-1.07 17.32 17.32 0 0 0-7 .49c-.95.24-1.85.51-2.78.83.94-.3 1.84-.55 2.79-.77C41 7.14 41.58 7 42.14 7c-.15 0-1.65.35-1.65.35a34.67 34.67 0 0 0-8 3.14A31 31 0 0 0 28.57 13a31.42 31.42 0 0 1 4-2.45 33 33 0 0 1 8-2.91 16.28 16.28 0 0 1 6.77-.26 17.19 17.19 0 0 0-6.72.56 34.73 34.73 0 0 0-7.84 3.14 26 26 0 0 0-6.57 5 13.91 13.91 0 0 0-2.1 2.92v.05V19a13.28 13.28 0 0 1 2.11-2.88 25.57 25.57 0 0 1 6.63-4.82c1.1-.56 2.16-1 3.3-1.49a33.81 33.81 0 0 0-3.27 1.57c-.62.34-1.22.69-1.82 1.07l1.83-1a32.94 32.94 0 0 1 7.81-3.02 16.09 16.09 0 0 1 6.55-.33 4.5 4.5 0 0 1 1.94.9 2.14 2.14 0 0 1 .52.63 2.28 2.28 0 0 1 .27.77 3.76 3.76 0 0 1 0 .67 2.89 2.89 0 0 0 0-.66 2.48 2.48 0 0 0-.28-.76 2.31 2.31 0 0 0-.55-.65 4.54 4.54 0 0 0-1.92-.82 16.32 16.32 0 0 0-6.48.46 33.84 33.84 0 0 0-7.72 3A26.09 26.09 0 0 0 27 16c.48-.47 1.44-1.27 1.44-1.27a28.56 28.56 0 0 1 4.59-3 32.63 32.63 0 0 1 7.72-2.9 15.54 15.54 0 0 1 6.4-.33 4.13 4.13 0 0 1 1.79.8 2 2 0 0 1 .43.52 1.68 1.68 0 0 1 .21.63 4.62 4.62 0 0 1-.31 2.18 6.44 6.44 0 0 1-.24.61l.22-.61a4.46 4.46 0 0 0 .26-2.17 1.46 1.46 0 0 0-.22-.58 1.94 1.94 0 0 0-.42-.48 4.14 4.14 0 0 0-1.75-.73 12.83 12.83 0 0 0-4 0c-.8.12-1.56.28-2.36.48a33.6 33.6 0 0 0-7.58 3.05A24.85 24.85 0 0 0 27 17a14.51 14.51 0 0 0-1.15 1.44A13.23 13.23 0 0 1 27 17a24.35 24.35 0 0 1 6.35-4.53c1-.51 2-1 3.09-1.36a33 33 0 0 0-3 1.5 24.48 24.48 0 0 0-6.14 4.7 12.24 12.24 0 0 0-1.67 2.32 12.06 12.06 0 0 1 1.71-2.27 23.55 23.55 0 0 1 6.2-4.51A31.13 31.13 0 0 1 41 10.1a14.41 14.41 0 0 1 6-.28 3 3 0 0 1 1.29.58.65.65 0 0 1 .15.18.76.76 0 0 1 0 .16 3.86 3.86 0 0 1-.28 1.42s-.16.39-.17.43l.14-.44a3.13 3.13 0 0 0 .19-1.39l-.05-.07-.12-.11a3.27 3.27 0 0 0-1.23-.45 14.55 14.55 0 0 0-5.45.41 15.07 15.07 0 0 1 4.87-.34 16.6 16.6 0 0 0-5.2.54 32.6 32.6 0 0 0-6 2.19l-1.3.68a23.15 23.15 0 0 0-5.93 4.46 10.89 10.89 0 0 0-1.64 2.3 5.08 5.08 0 0 0-.59 1.9A3.8 3.8 0 0 0 26 24a7.65 7.65 0 0 0 1.57 2.33c2.83 2.84 6.43 4.5 9.93 6l.62.26a30.57 30.57 0 0 1 3.19 1.59c-.94-.56-2.89-1.5-2.89-1.5l-.9-.39s-1.66-.69-1.66-.7a26 26 0 0 1-8.23-5.29 7.17 7.17 0 0 1-1.53-2.31 3.51 3.51 0 0 1-.23-1.64 5 5 0 0 1 .59-1.82 10.77 10.77 0 0 1 1.65-2.22A22.55 22.55 0 0 1 34 14a32.31 32.31 0 0 1 4.72-2c-.66.23-1.94.76-2 .79a29.46 29.46 0 0 1 4.53-1.45 18.7 18.7 0 0 1 3.33-.48.88.88 0 0 0 0 .23 19.73 19.73 0 0 0-3.27.53 31 31 0 0 0-6 2.18 29.43 29.43 0 0 1 6-2c.66-.14 1.3-.25 2-.33.43 0 .85-.09 1.28-.11a1.42 1.42 0 0 0 0 .26 19.18 19.18 0 0 0-3.21.52A28.37 28.37 0 0 0 38 13.19a32.43 32.43 0 0 0-3.58 1.69 25.21 25.21 0 0 0-4.26 2.93A24.61 24.61 0 0 1 34.44 15a30.1 30.1 0 0 1 5.08-2 31.7 31.7 0 0 0-5 2.25 23.42 23.42 0 0 0-4.74 3.43l.26-.24a23.9 23.9 0 0 1 4.54-3.05 28.72 28.72 0 0 1 6.92-2.56 18.37 18.37 0 0 1 3.3-.43l.13.31.07-.13-.08-.18h.18c.14-.28.28-.57.4-.87h-.85v-.25h1c0-.07 0-.15.07-.23a9.55 9.55 0 0 0-1.07 0v-.24a9.79 9.79 0 0 1 2.16.16l.23.06a.35.35 0 0 0-.07.15c0 .08-.05.19-.09.31l.28.1.08.12v-.08.08l.08.09h-.1c0 .14-.18.43-.16.38l.14-.38a2.38 2.38 0 0 0-.38-.11 7.29 7.29 0 0 1-.32.67c.09-.22.18-.44.26-.67h-.06l-.61-.08q0-.11-.06-.24c.23 0 .47.06.7.11h.09c0-.14 0-.23.07-.3h-.11c-.28 0-.55-.07-.83-.09 0-.05 0 0-.07 0h-.18v.5h-.16c-.13.26-.32.58-.48.87a6.18 6.18 0 0 1 1.07.09l.09.13v-.1.11a3.25 3.25 0 0 0 .26.27c.18.15-.13.09-.15.08h-.28l-.11.19.1-.19a7.17 7.17 0 0 0-.93 0l-.11-.4-.07.12a2.12 2.12 0 0 0 .11.21h-.24a18.47 18.47 0 0 0-3.19.52 30.52 30.52 0 0 0-6.73 2.66 21.34 21.34 0 0 0-5.29 3.93l-.29.32c-.15.18-.42.54-.44.57a8.82 8.82 0 0 1 .76-.86A20.53 20.53 0 0 1 35 16.39c.53-.26 1-.51 1.59-.73-.14.06-1.55.81-1.55.81-.67.38-1.29.77-1.93 1.21.65-.41 1.29-.78 2-1.14a28.24 28.24 0 0 1 6.67-2.47 14 14 0 0 1 3.81-.4 14.85 14.85 0 0 0-3.8.5A29.92 29.92 0 0 0 38 15.45a27.2 27.2 0 0 1 3.8-1.15 13 13 0 0 1 4.04-.3c.44.35.37.33.34.33a13.29 13.29 0 0 0-4.34.48 29.08 29.08 0 0 0-6.45 2.58 20.08 20.08 0 0 0-5 3.69 7.11 7.11 0 0 0-1 1.39v.07zm-25 46.27zM6 63.09v-.17.18zm1.79.64zM12 67l-.11-.08c0 .06.08.17.1.19V67zm-.11-.08zm.38-.58v.43h.08c.05.07.08.15.1.17v-.13h.1v-.08h-.08v-.13a2.69 2.69 0 0 0-.19-.32zm0 .35l.07.12h.13v-.07l-.21-.1zm.31.21a4.34 4.34 0 0 0 .77.21 8.43 8.43 0 0 0 .86.11l-.86-.15a7.11 7.11 0 0 1-.77-.24v.07zM48 12.59zm-3.42-1.74v-.31a.75.75 0 0 0 0 .32zm2.44.21zm0 0a.66.66 0 0 0 .06.2l.2.07v.22c0-.08 0-.17.06-.24l.24.09s-.08-.11-.11-.17v-.07h-.07v-.09a.27.27 0 0 1 0-.12v.19a2.11 2.11 0 0 0-.3-.1zm.41.14a.55.55 0 0 1 .17.1l-.06-.08a1.19 1.19 0 0 1-.11-.26.65.65 0 0 0 0 .13.36.36 0 0 0 0 .11zm.17.1zm-.33.29v.08l.15.05a.37.37 0 0 1-.12-.13zm0 .07v-.18a1.5 1.5 0 0 1-.11-.22h-.14a1.7 1.7 0 0 0 .14.35v.06h.1zm-1.3-.59h-.07a.13.13 0 0 0 0 .08l-.06.18h.24v-.06a.68.68 0 0 0-.06-.22zm-1.3 0a2 2 0 0 0 0 .25h.06v-.25zm1.86 1.3l-.1.19h.13c.38.15.28.08.26.07a2 2 0 0 1-.29-.29zm-.43.81c0 .1-.08.14 0 .1v-.1zm.32-.62l.1-.21a1.77 1.77 0 0 1-.16-.22 3.76 3.76 0 0 1-.25-.54h-.26a3 3 0 0 0 .28.73l.15.23h.14zm-1.69-1h-.08a4 4 0 0 0 .22.83h.12a4 4 0 0 1-.26-.85zM44.8 13c0 .05 0 .07 0 0zm.41 0h-.14v.06a3.46 3.46 0 0 0 .45.64h.23a3.42 3.42 0 0 1-.57-.72zm.57.72zm0 0h-.23a2.46 2.46 0 0 0 .28.28l.4.08-.23-.22a1.54 1.54 0 0 1-.19-.17zm.45.36s.06 0 0 0z" fill="#0272bb"></path></svg></svg> <!----></g></g></g></g></g></g> <!----></g><defs v-gra="od"></defs></svg>
